PathFileType	4	(X/Y/Z)	/Users/itak/Documents/Research/Walk-IL/dataset/trc/00123_00007.trc
DataRate	CameraRate	NumFrames	NumMarkers	Units	OrigDataRate	OrigDataStartFrame	OrigNumFrames
100.000000	100.000000	4	53	mm	100.000000	181	727
Frame#	Time	RPSI			LPSI			L3			STRN			T10			C7			CLAV			RBAK			LBAK			LSHO			LUPA			LAEL			LAOL			LWTS			LWPS			LFRA			LIFD			LHPS			LHTS			RSHO			RUPA			RAEL			RAOL			RWTS			RWPS			RFRA			RIFD			RHTS			RHPS			RBHD			LFHD			RFHD			LBHD			LHIP			RHIP			RASI			LASI			LKNE			LTHI			LANK			LTIP			LTOE			LMT1			LMT5			LHEE			RKNE			RTHI			RANK			RTIP			RTOE			RMT1			RMT5			RHEE			
		X1	Y1	Z1	X2	Y2	Z2	X3	Y3	Z3	X4	Y4	Z4	X5	Y5	Z5	X6	Y6	Z6	X7	Y7	Z7	X8	Y8	Z8	X9	Y9	Z9	X10	Y10	Z10	X11	Y11	Z11	X12	Y12	Z12	X13	Y13	Z13	X14	Y14	Z14	X15	Y15	Z15	X16	Y16	Z16	X17	Y17	Z17	X18	Y18	Z18	X19	Y19	Z19	X20	Y20	Z20	X21	Y21	Z21	X22	Y22	Z22	X23	Y23	Z23	X24	Y24	Z24	X25	Y25	Z25	X26	Y26	Z26	X27	Y27	Z27	X28	Y28	Z28	X29	Y29	Z29	X30	Y30	Z30	X31	Y31	Z31	X32	Y32	Z32	X33	Y33	Z33	X34	Y34	Z34	X35	Y35	Z35	X36	Y36	Z36	X37	Y37	Z37	X38	Y38	Z38	X39	Y39	Z39	X40	Y40	Z40	X41	Y41	Z41	X42	Y42	Z42	X43	Y43	Z43	X44	Y44	Z44	X45	Y45	Z45	X46	Y46	Z46	X47	Y47	Z47	X48	Y48	Z48	X49	Y49	Z49	X50	Y50	Z50	X51	Y51	Z51	X52	Y52	Z52	X53	Y53	Z53	

182	1.81	723.8726806640625	1097.269409179688	875.306396484375	606.595703125	1098.138916015625	803.9558715820312	653.892333984375	1132.370727539062	841.9910888671875	774.8086547851562	1329.562133789062	662.2655639648438	623.5949096679688	1285.58544921875	866.5572509765625	625.7034912109375	1574.556030273438	812.6229858398438	751.3707275390625	1465.6796875	684.9688110351562	662.7244873046875	1394.711181640625	916.6069946289062	542.6395874023438	1550.293579101562	752.796142578125	548.3515014648438	1532.428344726562	644.4270629882812	492.0756225585938	1398.077880859375	610.9003295898438	510.95361328125	1182.67333984375	562.7321166992188	510.30859375	1157.971801757812	649.2123413085938	666.81884765625	968.3927612304688	480.0404968261719	600.3375244140625	917.2741088867188	512.1195068359375	542.8277587890625	1074.516723632812	530.7664794921875	740.5550537109375	791.5673217773438	450.8125305175781	638.744140625	855.2505493164062	477.8187866210938	692.1918334960938	888.4017333984375	444.6050720214844	800.2033081054688	1563.31298828125	888.5960693359375	836.53369140625	1493.480224609375	947.9076538085938	845.2821044921875	1203.9853515625	994.7871704101562	769.0264892578125	1196.238403320312	933.46240234375	933.0377197265625	949.9071044921875	907.6572265625	903.8130493164062	941.7840576171875	984.2251586914062	872.5650024414062	1130.556518554688	995.6259765625	929.477783203125	754.580078125	896.5347290039062	955.51171875	839.793212890625	901.3218994140625	930.3270263671875	839.7610473632812	970.7211303710938	727.8470458984375	1767.560302734375	786.4364624023438	660.3458251953125	1772.400146484375	576.1129760742188	778.6903686523438	1805.722290039062	618.5653076171875	602.3408203125	1738.941040039062	746.9853515625	558.0731201171875	1004.722839355469	670.1616821289062	895.402587890625	1008.147216796875	823.1605224609375	885.321533203125	1078.939819335938	729.5238647460938	652.0736694335938	1067.753540039062	597.7711181640625	634.0253295898438	505.1512756347656	753.2138671875	588.995849609375	649.9922485351562	723.9113159179688	553.3055419921875	49.78219604492188	983.82763671875	543.7407836914062	279.8760986328125	876.0552368164062	776.720703125	34.25547027587891	903.7335205078125	725.3963012695312	47.80497741699219	974.1008911132812	643.8405151367188	41.00797271728516	894.1785278320312	531.8912353515625	70.61473846435547	1072.970703125	968.7518920898438	553.5160522460938	665.42236328125	943.3970336914062	813.405029296875	756.9213256835938	1033.620239257812	34.29193115234375	588.1784057617188	1001.105590820312	423.1132202148438	652.846923828125	1062.66455078125	136.0838165283203	383.6961669921875	1004.535461425781	104.3685684204102	411.0982666015625	1099.062133789062	79.85480499267578	481.2850646972656	967.7918090820312	20.16795349121094	623.3087768554688	
183	1.82	732.7300415039062	1095.372314453125	866.1063232421875	614.0281982421875	1096.741455078125	797.1157836914062	661.7710571289062	1130.8671875	834.44140625	779.9691162109375	1328.309692382812	653.6376953125	631.3607788085938	1283.910522460938	859.7359619140625	632.4208984375	1573.004638671875	806.232421875	756.7127075195312	1464.303344726562	676.8909912109375	670.91552734375	1392.9560546875	909.4985961914062	548.65087890625	1548.679931640625	747.3991088867188	553.0465087890625	1530.858154296875	638.9160766601562	496.4373474121094	1396.349975585938	606.200927734375	514.8800048828125	1180.779052734375	558.2609252929688	515.2130737304688	1156.516723632812	644.7600708007812	668.6154174804688	964.9577026367188	475.267333984375	602.1409912109375	914.5597534179688	508.3841247558594	545.9304809570312	1072.328735351562	526.5435791015625	740.8603515625	787.2984008789062	446.6536560058594	639.7916870117188	852.0328979492188	474.1782836914062	693.0484008789062	884.5015258789062	440.1511840820312	807.7963256835938	1561.745849609375	880.1011352539062	844.875244140625	1491.914672851562	938.958251953125	854.650634765625	1202.539794921875	985.8487548828125	777.6365966796875	1194.590698242188	925.1405029296875	942.168212890625	948.6851196289062	897.8287353515625	913.6814575195312	940.4560546875	974.6615600585938	882.1049194335938	1129.1552734375	986.403076171875	938.9395141601562	753.416748046875	886.6387329101562	964.9310302734375	838.6482543945312	891.2566528320312	940.385498046875	838.5208129882812	960.8859252929688	734.2386474609375	1766.091430664062	779.1044921875	664.712158203125	1771.267700195312	569.454833984375	783.4993286132812	1804.41064453125	610.7980346679688	608.3864135742188	1737.606689453125	740.8109130859375	564.051513671875	1003.455505371094	663.9690551757812	902.9376220703125	1006.707946777344	812.5134887695312	891.6686401367188	1077.71337890625	719.0426635742188	656.753662109375	1066.457397460938	589.9364624023438	638.32177734375	503.9646606445312	747.3594360351562	593.7711181640625	649.0086059570312	717.9093627929688	553.894287109375	51.5914306640625	983.86572265625	546.4888305664062	280.6197814941406	873.4583740234375	777.0250244140625	33.96303939819336	903.4450073242188	725.7308349609375	48.22492599487305	973.67724609375	644.0911865234375	41.25415420532227	894.1284790039062	532.9384155273438	73.95600128173828	1072.96630859375	972.9567260742188	552.0013427734375	653.8660278320312	950.00634765625	811.7894897460938	745.8468017578125	1038.246215820312	33.88491439819336	570.811279296875	1005.38623046875	421.9827880859375	639.69384765625	1059.320068359375	137.4359436035156	365.7893676757812	1002.316040039062	105.3054656982422	395.2000427246094	1099.493408203125	80.39014434814453	461.7319030761719	973.5116577148438	19.5428295135498	608.2964477539062	
184	1.83	741.5228881835938	1093.629272460938	856.80078125	621.47509765625	1095.3427734375	790.1246337890625	669.799072265625	1129.403930664062	826.6597290039062	785.1953735351562	1327.167358398438	644.8815307617188	639.2006225585938	1282.294189453125	852.7101440429688	639.169189453125	1571.544921875	799.7570190429688	762.0723876953125	1463.018798828125	668.7267456054688	679.1197509765625	1391.234741210938	902.2098388671875	554.7308349609375	1547.133544921875	741.884521484375	557.803466796875	1529.381225585938	633.31591796875	500.8306884765625	1394.715698242188	601.4166870117188	518.7257690429688	1178.950439453125	553.832763671875	519.927978515625	1155.222778320312	640.3090209960938	670.110107421875	961.4437255859375	470.6256103515625	603.646240234375	911.8429565429688	504.8533935546875	548.8670043945312	1070.178955078125	522.4314575195312	740.685302734375	782.8858642578125	442.6987609863281	640.4827880859375	848.7774658203125	470.7574157714844	693.478759765625	880.4924926757812	435.8722839355469	815.3837890625	1560.231201171875	871.5174560546875	853.2041015625	1490.386352539062	929.8902587890625	864.062744140625	1201.125	976.6832275390625	786.3690185546875	1192.971313476562	916.5939331054688	951.3182983398438	947.4725952148438	887.8059692382812	923.571044921875	939.1676635742188	964.9027709960938	891.7029418945312	1127.793701171875	976.9426879882812	948.4208984375	752.253173828125	876.62255859375	974.3417358398438	837.5031127929688	881.029296875	950.45068359375	837.3163452148438	950.8860473632812	740.663330078125	1764.726318359375	771.6886596679688	669.0715942382812	1770.22607421875	562.7463989257812	788.2993774414062	1803.202392578125	602.9483032226562	614.4600219726562	1736.368530273438	734.5845336914062	570.251708984375	1002.228332519531	657.6610107421875	910.4829711914062	1005.411926269531	801.7237548828125	898.064208984375	1076.591552734375	708.4391479492188	661.5597534179688	1065.253784179688	581.89990234375	642.7986450195312	502.7622375488281	741.12646484375	598.7284545898438	648.0192260742188	711.6131591796875	554.44189453125	53.54138946533203	983.6851196289062	549.2992553710938	281.4611206054688	870.54638671875	777.2772216796875	33.70565032958984	903.1646118164062	726.0172729492188	48.73592758178711	973.2021484375	644.3262939453125	41.48404312133789	893.9840698242188	533.8997802734375	77.58208465576172	1072.668579101562	977.1168212890625	550.6693725585938	641.7279663085938	956.6356811523438	810.4794921875	734.1627197265625	1041.650268554688	33.16930389404297	556.496826171875	1009.324768066406	420.7820434570312	626.6437377929688	1055.651245117188	136.6080780029297	350.4609985351562	999.689208984375	104.4076995849609	381.8547668457031	1099.06982421875	79.52899169921875	445.2514343261719	977.875732421875	19.14377784729004	596.1011352539062	
185	1.84	750.1192016601562	1092.144897460938	847.5194702148438	628.9293212890625	1093.984008789062	782.9714965820312	677.9509887695312	1128.031860351562	818.6590576171875	790.4813842773438	1326.170043945312	635.9874877929688	647.118896484375	1280.77734375	845.4808959960938	645.9574584960938	1570.217163085938	793.1952514648438	767.4435424804688	1461.865112304688	660.4688110351562	687.3297119140625	1389.584106445312	894.738037109375	560.879638671875	1545.695922851562	736.2482299804688	562.6255493164062	1528.029907226562	627.619140625	505.2596435546875	1393.211547851562	596.537841796875	522.4877319335938	1177.227416992188	549.4495849609375	524.4563598632812	1154.117431640625	635.8750610351562	671.3024291992188	957.8970336914062	466.12158203125	604.863037109375	909.1640014648438	501.5455322265625	551.6354370117188	1068.102416992188	518.4407958984375	740.0206298828125	778.386962890625	438.9560241699219	640.8170166015625	845.52587890625	467.5736694335938	693.498779296875	876.4273071289062	431.7848510742188	822.9695434570312	1558.806274414062	862.8425903320312	861.5169677734375	1488.928955078125	920.7023315429688	873.514404296875	1199.771118164062	967.2769165039062	795.2081909179688	1191.413330078125	907.8114013671875	960.4794311523438	946.29931640625	877.5861206054688	933.468994140625	937.9502563476562	954.9442749023438	901.3458251953125	1126.503662109375	967.2383422851562	957.9112548828125	751.1200561523438	866.4871826171875	983.73388671875	836.3895263671875	870.6428833007812	960.5075073242188	836.1779174804688	940.7227783203125	747.1205444335938	1763.50634765625	764.1798706054688	673.41162109375	1769.308227539062	555.9834594726562	793.080078125	1802.134399414062	595.0059814453125	620.5618286132812	1735.267822265625	728.3048095703125	576.5899047851562	1001.060852050781	651.2249145507812	918.0316162109375	1004.320190429688	790.7942504882812	904.4953002929688	1075.620361328125	697.7097778320312	666.4714965820312	1064.169189453125	573.70361328125	647.5076904296875	501.5347595214844	734.4495239257812	603.8981323242188	647.0272827148438	704.9840087890625	554.958984375	55.65395736694336	983.2601928710938	552.2039184570312	282.4150695800781	867.253173828125	777.472900390625	33.47908401489258	902.9010620117188	726.2511596679688	49.33792495727539	972.6669921875	644.5443115234375	41.68243789672852	893.7284545898438	534.775146484375	81.54204559326172	1072.021850585938	981.228759765625	549.56884765625	629.0831298828125	963.2198486328125	809.504638671875	721.9254150390625	1044.01220703125	32.17036056518555	545.19482421875	1012.967468261719	419.5572204589844	613.7127075195312	1051.847045898438	133.5433654785156	337.5795593261719	996.8294067382812	101.6624526977539	370.942626953125	1097.988159179688	77.20988464355469	431.7594604492188	981.0531616210938	19.04372978210449	586.68603515625	
